<svg id="visual" viewBox="0 0 960 540" width="960" height="540" xmlns="http://www.w3.org/2000/svg" xmlns:xlink="http://www.w3.org/1999/xlink" version="1.1"><path d="M0 154L20 164.3C40 174.7 80 195.3 120 215.5C160 235.7 200 255.3 240 249.7C280 244 320 213 360 207.8C400 202.7 440 223.3 480 224.7C520 226 560 208 600 203.8C640 199.7 680 209.3 720 218.3C760 227.3 800 235.7 840 233.7C880 231.7 920 219.3 940 213.2L960 207L960 0L940 0C920 0 880 0 840 0C800 0 760 0 720 0C680 0 640 0 600 0C560 0 520 0 480 0C440 0 400 0 360 0C320 0 280 0 240 0C200 0 160 0 120 0C80 0 40 0 20 0L0 0Z" fill="#5c3ec9" stroke-linecap="round" stroke-linejoin="miter"></path></svg>