<svg id="visual" viewBox="0 0 960 540" width="960" height="540" xmlns="http://www.w3.org/2000/svg" xmlns:xlink="http://www.w3.org/1999/xlink" version="1.1"><rect x="0" y="0" width="960" height="540" fill="#FFF"></rect><path d="M0 175L32 192C64 209 128 243 192 252.2C256 261.3 320 245.7 384 227.5C448 209.3 512 188.7 576 193C640 197.3 704 226.7 768 230.8C832 235 896 214 928 203.5L960 193L960 0L928 0C896 0 832 0 768 0C704 0 640 0 576 0C512 0 448 0 384 0C320 0 256 0 192 0C128 0 64 0 32 0L0 0Z" fill="#5c3ec9" stroke-linecap="round" stroke-linejoin="miter"></path></svg>