<svg id="visual" viewBox="0 0 960 540" width="960" height="540" xmlns="http://www.w3.org/2000/svg" xmlns:xlink="http://www.w3.org/1999/xlink" version="1.1"><rect x="0" y="0" width="960" height="540" fill="#FFF"></rect><path d="M0 198L32 216.8C64 235.7 128 273.3 192 283.5C256 293.7 320 276.3 384 256C448 235.7 512 212.3 576 217.2C640 222 704 255 768 259.8C832 264.7 896 241.3 928 229.7L960 218L960 0L928 0C896 0 832 0 768 0C704 0 640 0 576 0C512 0 448 0 384 0C320 0 256 0 192 0C128 0 64 0 32 0L0 0Z" fill="#dbd7f3" stroke-linecap="round" stroke-linejoin="miter"></path></svg>